<?xml version="1.0" encoding="UTF-8"?>
<svg xmlns="http://www.w3.org/2000/svg" xmlns:xlink="http://www.w3.org/1999/xlink" width="208pt" height="208pt" viewBox="0 0 208 208" version="1.1">
<g id="surface1">
<path style=" stroke:none;fill-rule:nonzero;fill:#000000;fill-opacity:1;" d="M 40 90.40625 C 62.40625 56.8125 97.59375 26.40625 99.1875 25.59375 C 100 24.8125 102.40625 24 104 24 C 105.59375 24 108 24.8125 109.59375 25.59375 C 111.1875 26.40625 146.40625 57.59375 168.8125 90.40625 C 170.40625 92.8125 170.40625 96 169.59375 99.1875 C 168 101.59375 165.59375 104 162.40625 104 L 132.8125 104 C 132.8125 104 128.8125 173.59375 126.40625 176.8125 C 122.40625 180.8125 112.8125 184 104 184 C 95.1875 184 86.40625 180.8125 83.1875 176.8125 C 81.59375 173.59375 76 104 76 104 L 46.40625 104 C 43.1875 104 40.8125 102.40625 39.1875 99.1875 C 37.59375 96.8125 38.40625 93.59375 40 90.40625 Z "/>
</g>
</svg>
